<svg width="287" height="200" viewBox="0 0 287 200" fill="none" xmlns="http://www.w3.org/2000/svg">
<path fill-rule="evenodd" clip-rule="evenodd" d="M185.959 48.8715L100 98.5L187.26 148.88C170.135 179.387 137.475 200 100 200C44.7715 200 0 155.228 0 100C0 44.7715 44.7715 0 100 0C136.546 0 168.514 19.6049 185.959 48.8715Z" fill="black"/>
<circle cx="104" cy="44" r="10" fill="#D9D9D9"/>
<path fill-rule="evenodd" clip-rule="evenodd" d="M260.513 142.071L187 99.6285L259.783 57.607C266.925 70.2816 271 84.9149 271 100.5C271 115.546 267.202 129.705 260.513 142.071ZM266.424 145.484C273.805 131.976 278 116.478 278 100C278 83.2925 273.687 67.5923 266.114 53.9521L272.959 50C281.877 64.9608 287 82.4464 287 101.128C287 118.882 282.373 135.555 274.26 150.008L266.424 145.484Z" fill="black"/>
<circle cx="251" cy="82" r="10" fill="#D9D9D9"/>
<circle cx="220" cy="100" r="8" fill="#D9D9D9"/>
<circle cx="246" cy="118" r="5" fill="#D9D9D9"/>
</svg>
