<svg width="287" height="200" viewBox="0 0 287 200" fill="none" xmlns="http://www.w3.org/2000/svg">
<path fill-rule="evenodd" clip-rule="evenodd" d="M185.959 48.8715L100 98.5L187.26 148.88C170.135 179.387 137.475 200 100 200C44.7715 200 0 155.228 0 100C0 44.7715 44.7715 0 100 0C136.546 0 168.514 19.6049 185.959 48.8715Z" fill="#2D3436"/>
<circle cx="100" cy="44" r="10" fill="#D9D9D9"/>
<path fill-rule="evenodd" clip-rule="evenodd" d="M260.033 140.794L187 98.6285L259.714 56.6473C266.893 69.1163 271 83.5786 271 99C271 114.192 267.015 128.452 260.033 140.794ZM267.119 144.885C274.684 131.477 279 115.993 279 99.5C279 82.4682 274.397 66.5115 266.367 52.8061L272.959 49C281.877 63.9608 287 81.4464 287 100.128C287 117.882 282.373 134.555 274.26 149.008L267.119 144.885Z" fill="#2D3436"/>
<circle cx="251" cy="81" r="11" fill="#FE0021" stroke="white" stroke-width="2"/>
<circle cx="220" cy="99" r="9" fill="#FE0021" stroke="white" stroke-width="2"/>
<circle cx="246" cy="117" r="6" fill="#FE0021" stroke="white" stroke-width="2"/>
</svg>
