<svg width="287" height="200" viewBox="0 0 287 200" fill="none" xmlns="http://www.w3.org/2000/svg">
<path fill-rule="evenodd" clip-rule="evenodd" d="M178.868 52.9654L185.959 48.8715C168.514 19.6049 136.546 0 100 0C44.7715 0 0 44.7715 0 100C0 155.228 44.7715 200 100 200C137.475 200 170.135 179.387 187.26 148.88L180.595 145.032C164.86 173.625 134.443 193 99.5 193C48.4137 193 7.00001 151.586 7.00001 100.5C7.00001 49.4137 48.4137 8 99.5 8C133.205 8 162.7 26.0271 178.868 52.9654ZM172.221 56.8032C157.428 31.7814 130.174 15 99 15C52.0558 15 14 53.0558 14 100C14 146.944 52.0558 185 99 185C131.102 185 159.047 167.205 173.509 140.94L100 98.5L172.221 56.8032Z" fill="#2D3436"/>
<circle cx="100" cy="44" r="10" fill="#D9D9D9"/>
<path fill-rule="evenodd" clip-rule="evenodd" d="M260.033 141.794L187 99.6285L259.714 57.6473C266.893 70.1163 271 84.5786 271 100C271 115.192 267.015 129.452 260.033 141.794ZM267.119 145.885C274.684 132.477 279 116.993 279 100.5C279 83.4682 274.397 67.5115 266.367 53.8061L272.959 50C281.877 64.9608 287 82.4464 287 101.128C287 118.882 282.373 135.555 274.26 150.008L267.119 145.885Z" fill="#2D3436"/>
<circle cx="251" cy="82" r="10" fill="#D9D9D9"/>
<circle cx="220" cy="100" r="8" fill="#D9D9D9"/>
<circle cx="246" cy="118" r="5" fill="#D9D9D9"/>
</svg>
