<svg width="153" height="74" viewBox="0 0 153 74" fill="none" xmlns="http://www.w3.org/2000/svg">
<g clip-path="url(#clip0_1_3)">
<rect width="153" height="74" fill="white"/>
<path d="M0 0H153V74H0V0Z" fill="black"/>
<path d="M79 5H148V35H79V5Z" fill="#FE0021"/>
<path d="M79 39H148V69H79V39Z" fill="white"/>
<g filter="url(#filter0_d_1_3)">
<path d="M100.231 7.72726H103.458L109.913 18.5909H110.185L116.64 7.72726H119.867L111.458 21.4091V31H108.64V21.4091L100.231 7.72726Z" fill="black"/>
</g>
<g filter="url(#filter1_d_1_3)">
<path d="M82.1244 31V7.72726H84.9426V28.5H95.7608V31H82.1244Z" fill="black"/>
</g>
<g filter="url(#filter2_d_1_3)">
<path d="M73.7108 19.3636C73.7108 21.8182 73.2676 23.9394 72.3813 25.7273C71.4949 27.5151 70.279 28.8939 68.7335 29.8636C67.1881 30.8333 65.4229 31.3182 63.4381 31.3182C61.4532 31.3182 59.6881 30.8333 58.1426 29.8636C56.5972 28.8939 55.3813 27.5151 54.4949 25.7273C53.6085 23.9394 53.1653 21.8182 53.1653 19.3636C53.1653 16.9091 53.6085 14.7879 54.4949 13C55.3813 11.2121 56.5972 9.83333 58.1426 8.86363C59.6881 7.89394 61.4532 7.40909 63.4381 7.40909C65.4229 7.40909 67.1881 7.89394 68.7335 8.86363C70.279 9.83333 71.4949 11.2121 72.3813 13C73.2676 14.7879 73.7108 16.9091 73.7108 19.3636ZM70.9835 19.3636C70.9835 17.3485 70.6464 15.6477 69.9722 14.2614C69.3055 12.875 68.4002 11.8258 67.2563 11.1136C66.1199 10.4015 64.8472 10.0455 63.4381 10.0455C62.029 10.0455 60.7525 10.4015 59.6085 11.1136C58.4722 11.8258 57.5669 12.875 56.8926 14.2614C56.226 15.6477 55.8926 17.3485 55.8926 19.3636C55.8926 21.3788 56.226 23.0795 56.8926 24.4659C57.5669 25.8523 58.4722 26.9015 59.6085 27.6136C60.7525 28.3258 62.029 28.6818 63.4381 28.6818C64.8472 28.6818 66.1199 28.3258 67.2563 27.6136C68.4002 26.9015 69.3055 25.8523 69.9722 24.4659C70.6464 23.0795 70.9835 21.3788 70.9835 19.3636Z" fill="#FE0021"/>
</g>
<g filter="url(#filter3_d_1_3)">
<path d="M27.1869 31V7.72726H30.0051V18.0909H42.4142V7.72726H45.2324V31H42.4142V20.5909H30.0051V31H27.1869Z" fill="#FE0021"/>
</g>
<g filter="url(#filter4_d_1_3)">
<path d="M107.06 66H104.106L112.651 42.7273H115.56L124.106 66H121.151L114.197 46.4091H114.015L107.06 66ZM108.151 56.9091H120.06V59.4091H108.151V56.9091Z" fill="black"/>
</g>
<g filter="url(#filter5_d_1_3)">
<path d="M82.133 66V63.9545L94.6784 45.2273H81.9966V42.7273H98.042V44.7727L85.4966 63.5H98.1784V66H82.133Z" fill="black"/>
</g>
<g filter="url(#filter6_d_1_3)">
<path d="M58.6361 66V63.9545L71.1815 45.2273H58.4997V42.7273H74.5452V44.7727L61.9997 63.5H74.6815V66H58.6361Z" fill="white"/>
</g>
<g filter="url(#filter7_d_1_3)">
<path d="M50.5582 42.7273V66H47.7401V42.7273H50.5582Z" fill="white"/>
</g>
<g filter="url(#filter8_d_1_3)">
<path d="M24.2276 66V42.7273H32.0912C33.9169 42.7273 35.4094 43.0568 36.5685 43.7159C37.7351 44.3674 38.5988 45.25 39.1594 46.3636C39.72 47.4773 40.0003 48.7197 40.0003 50.0909C40.0003 51.4621 39.72 52.7083 39.1594 53.8295C38.6063 54.9507 37.7503 55.8447 36.5912 56.5114C35.4321 57.1704 33.9473 57.5 32.1366 57.5H26.5003V55H32.0457C33.2957 55 34.2995 54.7841 35.0571 54.3523C35.8147 53.9204 36.3639 53.3371 36.7048 52.6023C37.0533 51.8598 37.2276 51.0227 37.2276 50.0909C37.2276 49.1591 37.0533 48.3257 36.7048 47.5909C36.3639 46.8561 35.8109 46.2803 35.0457 45.8636C34.2806 45.4394 33.2654 45.2273 32.0003 45.2273H27.0457V66H24.2276Z" fill="white"/>
</g>
</g>
<defs>
<filter id="filter0_d_1_3" x="96.2307" y="3.72726" width="27.6364" height="31.2727" filterUnits="userSpaceOnUse" color-interpolation-filters="sRGB">
<feFlood flood-opacity="0" result="BackgroundImageFix"/>
<feColorMatrix in="SourceAlpha" type="matrix" values="0 0 0 0 0 0 0 0 0 0 0 0 0 0 0 0 0 0 127 0" result="hardAlpha"/>
<feOffset/>
<feGaussianBlur stdDeviation="2"/>
<feComposite in2="hardAlpha" operator="out"/>
<feColorMatrix type="matrix" values="0 0 0 0 1 0 0 0 0 1 0 0 0 0 1 0 0 0 0.25 0"/>
<feBlend mode="normal" in2="BackgroundImageFix" result="effect1_dropShadow_1_3"/>
<feBlend mode="normal" in="SourceGraphic" in2="effect1_dropShadow_1_3" result="shape"/>
</filter>
<filter id="filter1_d_1_3" x="78.1244" y="3.72726" width="21.6364" height="31.2727" filterUnits="userSpaceOnUse" color-interpolation-filters="sRGB">
<feFlood flood-opacity="0" result="BackgroundImageFix"/>
<feColorMatrix in="SourceAlpha" type="matrix" values="0 0 0 0 0 0 0 0 0 0 0 0 0 0 0 0 0 0 127 0" result="hardAlpha"/>
<feOffset/>
<feGaussianBlur stdDeviation="2"/>
<feComposite in2="hardAlpha" operator="out"/>
<feColorMatrix type="matrix" values="0 0 0 0 1 0 0 0 0 1 0 0 0 0 1 0 0 0 0.25 0"/>
<feBlend mode="normal" in2="BackgroundImageFix" result="effect1_dropShadow_1_3"/>
<feBlend mode="normal" in="SourceGraphic" in2="effect1_dropShadow_1_3" result="shape"/>
</filter>
<filter id="filter2_d_1_3" x="49.1653" y="3.40909" width="28.5455" height="31.9091" filterUnits="userSpaceOnUse" color-interpolation-filters="sRGB">
<feFlood flood-opacity="0" result="BackgroundImageFix"/>
<feColorMatrix in="SourceAlpha" type="matrix" values="0 0 0 0 0 0 0 0 0 0 0 0 0 0 0 0 0 0 127 0" result="hardAlpha"/>
<feOffset/>
<feGaussianBlur stdDeviation="2"/>
<feComposite in2="hardAlpha" operator="out"/>
<feColorMatrix type="matrix" values="0 0 0 0 1 0 0 0 0 1 0 0 0 0 1 0 0 0 0.25 0"/>
<feBlend mode="normal" in2="BackgroundImageFix" result="effect1_dropShadow_1_3"/>
<feBlend mode="normal" in="SourceGraphic" in2="effect1_dropShadow_1_3" result="shape"/>
</filter>
<filter id="filter3_d_1_3" x="23.1869" y="3.72726" width="26.0455" height="31.2727" filterUnits="userSpaceOnUse" color-interpolation-filters="sRGB">
<feFlood flood-opacity="0" result="BackgroundImageFix"/>
<feColorMatrix in="SourceAlpha" type="matrix" values="0 0 0 0 0 0 0 0 0 0 0 0 0 0 0 0 0 0 127 0" result="hardAlpha"/>
<feOffset/>
<feGaussianBlur stdDeviation="2"/>
<feComposite in2="hardAlpha" operator="out"/>
<feColorMatrix type="matrix" values="0 0 0 0 1 0 0 0 0 1 0 0 0 0 1 0 0 0 0.25 0"/>
<feBlend mode="normal" in2="BackgroundImageFix" result="effect1_dropShadow_1_3"/>
<feBlend mode="normal" in="SourceGraphic" in2="effect1_dropShadow_1_3" result="shape"/>
</filter>
<filter id="filter4_d_1_3" x="100.106" y="38.7273" width="28" height="31.2727" filterUnits="userSpaceOnUse" color-interpolation-filters="sRGB">
<feFlood flood-opacity="0" result="BackgroundImageFix"/>
<feColorMatrix in="SourceAlpha" type="matrix" values="0 0 0 0 0 0 0 0 0 0 0 0 0 0 0 0 0 0 127 0" result="hardAlpha"/>
<feOffset/>
<feGaussianBlur stdDeviation="2"/>
<feComposite in2="hardAlpha" operator="out"/>
<feColorMatrix type="matrix" values="0 0 0 0 1 0 0 0 0 1 0 0 0 0 1 0 0 0 0.25 0"/>
<feBlend mode="normal" in2="BackgroundImageFix" result="effect1_dropShadow_1_3"/>
<feBlend mode="normal" in="SourceGraphic" in2="effect1_dropShadow_1_3" result="shape"/>
</filter>
<filter id="filter5_d_1_3" x="77.9966" y="38.7273" width="24.1818" height="31.2727" filterUnits="userSpaceOnUse" color-interpolation-filters="sRGB">
<feFlood flood-opacity="0" result="BackgroundImageFix"/>
<feColorMatrix in="SourceAlpha" type="matrix" values="0 0 0 0 0 0 0 0 0 0 0 0 0 0 0 0 0 0 127 0" result="hardAlpha"/>
<feOffset/>
<feGaussianBlur stdDeviation="2"/>
<feComposite in2="hardAlpha" operator="out"/>
<feColorMatrix type="matrix" values="0 0 0 0 1 0 0 0 0 1 0 0 0 0 1 0 0 0 0.25 0"/>
<feBlend mode="normal" in2="BackgroundImageFix" result="effect1_dropShadow_1_3"/>
<feBlend mode="normal" in="SourceGraphic" in2="effect1_dropShadow_1_3" result="shape"/>
</filter>
<filter id="filter6_d_1_3" x="54.4997" y="38.7273" width="24.1818" height="31.2727" filterUnits="userSpaceOnUse" color-interpolation-filters="sRGB">
<feFlood flood-opacity="0" result="BackgroundImageFix"/>
<feColorMatrix in="SourceAlpha" type="matrix" values="0 0 0 0 0 0 0 0 0 0 0 0 0 0 0 0 0 0 127 0" result="hardAlpha"/>
<feOffset/>
<feGaussianBlur stdDeviation="2"/>
<feComposite in2="hardAlpha" operator="out"/>
<feColorMatrix type="matrix" values="0 0 0 0 1 0 0 0 0 1 0 0 0 0 1 0 0 0 0.25 0"/>
<feBlend mode="normal" in2="BackgroundImageFix" result="effect1_dropShadow_1_3"/>
<feBlend mode="normal" in="SourceGraphic" in2="effect1_dropShadow_1_3" result="shape"/>
</filter>
<filter id="filter7_d_1_3" x="43.7401" y="38.7273" width="10.8182" height="31.2727" filterUnits="userSpaceOnUse" color-interpolation-filters="sRGB">
<feFlood flood-opacity="0" result="BackgroundImageFix"/>
<feColorMatrix in="SourceAlpha" type="matrix" values="0 0 0 0 0 0 0 0 0 0 0 0 0 0 0 0 0 0 127 0" result="hardAlpha"/>
<feOffset/>
<feGaussianBlur stdDeviation="2"/>
<feComposite in2="hardAlpha" operator="out"/>
<feColorMatrix type="matrix" values="0 0 0 0 1 0 0 0 0 1 0 0 0 0 1 0 0 0 0.25 0"/>
<feBlend mode="normal" in2="BackgroundImageFix" result="effect1_dropShadow_1_3"/>
<feBlend mode="normal" in="SourceGraphic" in2="effect1_dropShadow_1_3" result="shape"/>
</filter>
<filter id="filter8_d_1_3" x="20.2276" y="38.7273" width="23.7727" height="31.2727" filterUnits="userSpaceOnUse" color-interpolation-filters="sRGB">
<feFlood flood-opacity="0" result="BackgroundImageFix"/>
<feColorMatrix in="SourceAlpha" type="matrix" values="0 0 0 0 0 0 0 0 0 0 0 0 0 0 0 0 0 0 127 0" result="hardAlpha"/>
<feOffset/>
<feGaussianBlur stdDeviation="2"/>
<feComposite in2="hardAlpha" operator="out"/>
<feColorMatrix type="matrix" values="0 0 0 0 1 0 0 0 0 1 0 0 0 0 1 0 0 0 0.25 0"/>
<feBlend mode="normal" in2="BackgroundImageFix" result="effect1_dropShadow_1_3"/>
<feBlend mode="normal" in="SourceGraphic" in2="effect1_dropShadow_1_3" result="shape"/>
</filter>
<clipPath id="clip0_1_3">
<rect width="153" height="74" fill="white"/>
</clipPath>
</defs>
</svg>
