<svg width="287" height="200" viewBox="0 0 287 200" fill="none" xmlns="http://www.w3.org/2000/svg">
<path fill-rule="evenodd" clip-rule="evenodd" d="M181.628 51.3721L185.959 48.8715C168.514 19.6049 136.546 0 100 0C44.7715 0 0 44.7715 0 100C0 155.228 44.7715 200 100 200C137.475 200 170.135 179.387 187.26 148.88L182.929 146.379C166.669 175.392 135.624 195 100 195C47.5329 195 5 152.467 5 100C5 47.5329 47.5329 5 100 5C134.696 5 165.047 23.5997 181.628 51.3721ZM177.297 53.8728C161.581 27.5946 132.845 10 100 10C50.2944 10 10 50.2944 10 100C10 149.706 50.2944 190 100 190C133.774 190 163.202 171.397 178.598 143.878L100 98.5L177.297 53.8728Z" fill="#2D3436"/>
<circle cx="104" cy="44" r="10" fill="#D9D9D9"/>
<path fill-rule="evenodd" clip-rule="evenodd" d="M265.116 144.729L187 99.6285L264.794 54.7143C272.554 68.0165 277 83.489 277 100C277 116.281 272.677 131.552 265.116 144.729ZM269.447 147.229C277.433 133.317 282 117.192 282 100C282 82.5781 277.31 66.2516 269.125 52.2139L272.959 50C281.877 64.9608 287 82.4464 287 101.128C287 118.882 282.373 135.555 274.26 150.008L269.447 147.229Z" fill="#2D3436"/>
<circle cx="251" cy="82" r="10" fill="#D9D9D9"/>
<circle cx="220" cy="100" r="8" fill="#D9D9D9"/>
<circle cx="246" cy="118" r="5" fill="#D9D9D9"/>
</svg>
