<svg width="160" height="80" viewBox="0 0 160 80" fill="none" xmlns="http://www.w3.org/2000/svg">
<path d="M0 0H160V80H0V0Z" fill="#2D3436"/>
<path d="M85 42H160V72H85V42Z" fill="white"/>
<path d="M0 7H85V37H0V7Z" fill="white"/>
<g filter="url(#filter0_d_17_4)">
<path d="M111.149 11H114.74L121.923 21.8636H122.226L129.409 11H133L123.642 24.6818V34.2727H120.506V24.6818L111.149 11Z" fill="white"/>
</g>
<g filter="url(#filter1_d_17_4)">
<path d="M91 34.2727V11H94.1361V31.7727H106.175V34.2727H91Z" fill="white"/>
</g>
<g filter="url(#filter2_d_17_4)">
<path d="M79.2963 21.9545C79.2963 24.4091 78.8077 26.5303 77.8304 28.3182C76.8531 30.1061 75.5125 31.4848 73.8085 32.4545C72.1045 33.4242 70.1583 33.9091 67.9698 33.9091C65.7813 33.9091 63.8351 33.4242 62.1311 32.4545C60.4272 31.4848 59.0865 30.1061 58.1092 28.3182C57.1319 26.5303 56.6433 24.4091 56.6433 21.9545C56.6433 19.5 57.1319 17.3788 58.1092 15.5909C59.0865 13.803 60.4272 12.4242 62.1311 11.4545C63.8351 10.4848 65.7813 10 67.9698 10C70.1583 10 72.1045 10.4848 73.8085 11.4545C75.5125 12.4242 76.8531 13.803 77.8304 15.5909C78.8077 17.3788 79.2963 19.5 79.2963 21.9545ZM76.2893 21.9545C76.2893 19.9394 75.9176 18.2386 75.1742 16.8523C74.4391 15.4659 73.4409 14.4167 72.1797 13.7045C70.9267 12.9924 69.5234 12.6364 67.9698 12.6364C66.4162 12.6364 65.0087 12.9924 63.7474 13.7045C62.4945 14.4167 61.4963 15.4659 60.7529 16.8523C60.0179 18.2386 59.6503 19.9394 59.6503 21.9545C59.6503 23.9697 60.0179 25.6705 60.7529 27.0568C61.4963 28.4432 62.4945 29.4924 63.7474 30.2045C65.0087 30.9167 66.4162 31.2727 67.9698 31.2727C69.5234 31.2727 70.9267 30.9167 72.1797 30.2045C73.4409 29.4924 74.4391 28.4432 75.1742 27.0568C75.9176 25.6705 76.2893 23.9697 76.2893 21.9545Z" fill="#2D3436"/>
</g>
<g filter="url(#filter3_d_17_4)">
<path d="M28 33.5909V10.3182H31.1073V20.6818H44.7893V10.3182H47.8966V33.5909H44.7893V23.1818H31.1073V33.5909H28Z" fill="#2D3436"/>
</g>
<g filter="url(#filter4_d_17_4)">
<path d="M116.064 69.2727H113.109L121.655 46H124.564L133.109 69.2727H130.155L123.2 49.6818H123.018L116.064 69.2727ZM117.155 60.1818H129.064V62.6818H117.155V60.1818Z" fill="#2D3436"/>
</g>
<g filter="url(#filter5_d_17_4)">
<path d="M91.1364 69.2727V67.2273L103.682 48.5H91V46H107.045V48.0455L94.5 66.7727H107.182V69.2727H91.1364Z" fill="#2D3436"/>
</g>
<g filter="url(#filter6_d_17_4)">
<path d="M62.4085 69.2727V67.2273L74.954 48.5H62.2722V46H78.3176V48.0455L65.7722 66.7727H78.454V69.2727H62.4085Z" fill="white"/>
</g>
<g filter="url(#filter7_d_17_4)">
<path d="M54.3307 46V69.2727H51.5125V46H54.3307Z" fill="white"/>
</g>
<g filter="url(#filter8_d_17_4)">
<path d="M28 69.2727V46H35.8636C37.6894 46 39.1818 46.3295 40.3409 46.9886C41.5076 47.6402 42.3712 48.5227 42.9318 49.6364C43.4924 50.75 43.7727 51.9924 43.7727 53.3636C43.7727 54.7348 43.4924 55.9811 42.9318 57.1023C42.3788 58.2235 41.5227 59.1174 40.3636 59.7841C39.2045 60.4432 37.7197 60.7727 35.9091 60.7727H30.2727V58.2727H35.8182C37.0682 58.2727 38.072 58.0568 38.8295 57.625C39.5871 57.1932 40.1364 56.6098 40.4773 55.875C40.8258 55.1326 41 54.2955 41 53.3636C41 52.4318 40.8258 51.5985 40.4773 50.8636C40.1364 50.1288 39.5833 49.553 38.8182 49.1364C38.053 48.7121 37.0379 48.5 35.7727 48.5H30.8182V69.2727H28Z" fill="white"/>
</g>
<defs>
<filter id="filter0_d_17_4" x="107.149" y="7" width="29.8514" height="31.2727" filterUnits="userSpaceOnUse" color-interpolation-filters="sRGB">
<feFlood flood-opacity="0" result="BackgroundImageFix"/>
<feColorMatrix in="SourceAlpha" type="matrix" values="0 0 0 0 0 0 0 0 0 0 0 0 0 0 0 0 0 0 127 0" result="hardAlpha"/>
<feOffset/>
<feGaussianBlur stdDeviation="2"/>
<feComposite in2="hardAlpha" operator="out"/>
<feColorMatrix type="matrix" values="0 0 0 0 1 0 0 0 0 1 0 0 0 0 1 0 0 0 0.25 0"/>
<feBlend mode="normal" in2="BackgroundImageFix" result="effect1_dropShadow_17_4"/>
<feBlend mode="normal" in="SourceGraphic" in2="effect1_dropShadow_17_4" result="shape"/>
</filter>
<filter id="filter1_d_17_4" x="87" y="7" width="23.1746" height="31.2727" filterUnits="userSpaceOnUse" color-interpolation-filters="sRGB">
<feFlood flood-opacity="0" result="BackgroundImageFix"/>
<feColorMatrix in="SourceAlpha" type="matrix" values="0 0 0 0 0 0 0 0 0 0 0 0 0 0 0 0 0 0 127 0" result="hardAlpha"/>
<feOffset/>
<feGaussianBlur stdDeviation="2"/>
<feComposite in2="hardAlpha" operator="out"/>
<feColorMatrix type="matrix" values="0 0 0 0 1 0 0 0 0 1 0 0 0 0 1 0 0 0 0.25 0"/>
<feBlend mode="normal" in2="BackgroundImageFix" result="effect1_dropShadow_17_4"/>
<feBlend mode="normal" in="SourceGraphic" in2="effect1_dropShadow_17_4" result="shape"/>
</filter>
<filter id="filter2_d_17_4" x="52.6433" y="6" width="30.653" height="31.9091" filterUnits="userSpaceOnUse" color-interpolation-filters="sRGB">
<feFlood flood-opacity="0" result="BackgroundImageFix"/>
<feColorMatrix in="SourceAlpha" type="matrix" values="0 0 0 0 0 0 0 0 0 0 0 0 0 0 0 0 0 0 127 0" result="hardAlpha"/>
<feOffset/>
<feGaussianBlur stdDeviation="2"/>
<feComposite in2="hardAlpha" operator="out"/>
<feColorMatrix type="matrix" values="0 0 0 0 1 0 0 0 0 1 0 0 0 0 1 0 0 0 0.25 0"/>
<feBlend mode="normal" in2="BackgroundImageFix" result="effect1_dropShadow_17_4"/>
<feBlend mode="normal" in="SourceGraphic" in2="effect1_dropShadow_17_4" result="shape"/>
</filter>
<filter id="filter3_d_17_4" x="24" y="6.31818" width="27.8966" height="31.2727" filterUnits="userSpaceOnUse" color-interpolation-filters="sRGB">
<feFlood flood-opacity="0" result="BackgroundImageFix"/>
<feColorMatrix in="SourceAlpha" type="matrix" values="0 0 0 0 0 0 0 0 0 0 0 0 0 0 0 0 0 0 127 0" result="hardAlpha"/>
<feOffset/>
<feGaussianBlur stdDeviation="2"/>
<feComposite in2="hardAlpha" operator="out"/>
<feColorMatrix type="matrix" values="0 0 0 0 1 0 0 0 0 1 0 0 0 0 1 0 0 0 0.25 0"/>
<feBlend mode="normal" in2="BackgroundImageFix" result="effect1_dropShadow_17_4"/>
<feBlend mode="normal" in="SourceGraphic" in2="effect1_dropShadow_17_4" result="shape"/>
</filter>
<filter id="filter4_d_17_4" x="109.109" y="42" width="28" height="31.2727" filterUnits="userSpaceOnUse" color-interpolation-filters="sRGB">
<feFlood flood-opacity="0" result="BackgroundImageFix"/>
<feColorMatrix in="SourceAlpha" type="matrix" values="0 0 0 0 0 0 0 0 0 0 0 0 0 0 0 0 0 0 127 0" result="hardAlpha"/>
<feOffset/>
<feGaussianBlur stdDeviation="2"/>
<feComposite in2="hardAlpha" operator="out"/>
<feColorMatrix type="matrix" values="0 0 0 0 1 0 0 0 0 1 0 0 0 0 1 0 0 0 0.25 0"/>
<feBlend mode="normal" in2="BackgroundImageFix" result="effect1_dropShadow_17_4"/>
<feBlend mode="normal" in="SourceGraphic" in2="effect1_dropShadow_17_4" result="shape"/>
</filter>
<filter id="filter5_d_17_4" x="87" y="42" width="24.1818" height="31.2727" filterUnits="userSpaceOnUse" color-interpolation-filters="sRGB">
<feFlood flood-opacity="0" result="BackgroundImageFix"/>
<feColorMatrix in="SourceAlpha" type="matrix" values="0 0 0 0 0 0 0 0 0 0 0 0 0 0 0 0 0 0 127 0" result="hardAlpha"/>
<feOffset/>
<feGaussianBlur stdDeviation="2"/>
<feComposite in2="hardAlpha" operator="out"/>
<feColorMatrix type="matrix" values="0 0 0 0 1 0 0 0 0 1 0 0 0 0 1 0 0 0 0.25 0"/>
<feBlend mode="normal" in2="BackgroundImageFix" result="effect1_dropShadow_17_4"/>
<feBlend mode="normal" in="SourceGraphic" in2="effect1_dropShadow_17_4" result="shape"/>
</filter>
<filter id="filter6_d_17_4" x="58.2722" y="42" width="24.1818" height="31.2727" filterUnits="userSpaceOnUse" color-interpolation-filters="sRGB">
<feFlood flood-opacity="0" result="BackgroundImageFix"/>
<feColorMatrix in="SourceAlpha" type="matrix" values="0 0 0 0 0 0 0 0 0 0 0 0 0 0 0 0 0 0 127 0" result="hardAlpha"/>
<feOffset/>
<feGaussianBlur stdDeviation="2"/>
<feComposite in2="hardAlpha" operator="out"/>
<feColorMatrix type="matrix" values="0 0 0 0 1 0 0 0 0 1 0 0 0 0 1 0 0 0 0.25 0"/>
<feBlend mode="normal" in2="BackgroundImageFix" result="effect1_dropShadow_17_4"/>
<feBlend mode="normal" in="SourceGraphic" in2="effect1_dropShadow_17_4" result="shape"/>
</filter>
<filter id="filter7_d_17_4" x="47.5125" y="42" width="10.8182" height="31.2727" filterUnits="userSpaceOnUse" color-interpolation-filters="sRGB">
<feFlood flood-opacity="0" result="BackgroundImageFix"/>
<feColorMatrix in="SourceAlpha" type="matrix" values="0 0 0 0 0 0 0 0 0 0 0 0 0 0 0 0 0 0 127 0" result="hardAlpha"/>
<feOffset/>
<feGaussianBlur stdDeviation="2"/>
<feComposite in2="hardAlpha" operator="out"/>
<feColorMatrix type="matrix" values="0 0 0 0 1 0 0 0 0 1 0 0 0 0 1 0 0 0 0.25 0"/>
<feBlend mode="normal" in2="BackgroundImageFix" result="effect1_dropShadow_17_4"/>
<feBlend mode="normal" in="SourceGraphic" in2="effect1_dropShadow_17_4" result="shape"/>
</filter>
<filter id="filter8_d_17_4" x="24" y="42" width="23.7727" height="31.2727" filterUnits="userSpaceOnUse" color-interpolation-filters="sRGB">
<feFlood flood-opacity="0" result="BackgroundImageFix"/>
<feColorMatrix in="SourceAlpha" type="matrix" values="0 0 0 0 0 0 0 0 0 0 0 0 0 0 0 0 0 0 127 0" result="hardAlpha"/>
<feOffset/>
<feGaussianBlur stdDeviation="2"/>
<feComposite in2="hardAlpha" operator="out"/>
<feColorMatrix type="matrix" values="0 0 0 0 1 0 0 0 0 1 0 0 0 0 1 0 0 0 0.25 0"/>
<feBlend mode="normal" in2="BackgroundImageFix" result="effect1_dropShadow_17_4"/>
<feBlend mode="normal" in="SourceGraphic" in2="effect1_dropShadow_17_4" result="shape"/>
</filter>
</defs>
</svg>
